<?xml version="1.0" encoding="UTF-8" standalone="no"?>
<!-- Created with Inkscape (http://www.inkscape.org/) -->

<svg
   width="210mm"
   height="297mm"
   viewBox="0 0 210 297"
   version="1.1"
   id="svg1"
   xml:space="preserve"
   inkscape:version="1.3.2 (091e20e, 2023-11-25, custom)"
   sodipodi:docname="favicon.svg"
   xmlns:inkscape="http://www.inkscape.org/namespaces/inkscape"
   xmlns:sodipodi="http://sodipodi.sourceforge.net/DTD/sodipodi-0.dtd"
   xmlns="http://www.w3.org/2000/svg"
   xmlns:svg="http://www.w3.org/2000/svg"><sodipodi:namedview
     id="namedview1"
     pagecolor="#ffffff"
     bordercolor="#000000"
     borderopacity="0.25"
     inkscape:showpageshadow="2"
     inkscape:pageopacity="0.0"
     inkscape:pagecheckerboard="0"
     inkscape:deskcolor="#d1d1d1"
     inkscape:document-units="mm"
     inkscape:zoom="1.6863847"
     inkscape:cx="396.70664"
     inkscape:cy="561.25984"
     inkscape:window-width="3840"
     inkscape:window-height="2089"
     inkscape:window-x="-8"
     inkscape:window-y="-8"
     inkscape:window-maximized="1"
     inkscape:current-layer="layer1" /><defs
     id="defs1" /><g
     inkscape:label="Layer 1"
     inkscape:groupmode="layer"
     id="layer1"><g
       transform="matrix(0.26458333,0,0,0.26458333,-139.40171,-13.922446)"
       id="layer1-7"
       style="fill:#cd4334;fill-opacity:1;stroke:none"><path
         d="m 921.33923,581.4693 c 24.0243,2.80534 52.37886,8.1762 65.0633,31.40835 9.26227,13.69502 17.32517,28.38401 28.87647,40.36617 20.4742,10.36026 40.8732,22.80183 55.5624,40.70359 18.4349,27.56507 12.8528,67.04874 -8.5754,91.25527 -23.9937,21.96745 -58.5285,32.94178 -90.50948,24.81452 -20.44108,-4.08663 -40.82293,-16.11271 -62.09074,-9.39446 -19.67342,5.52125 -39.19757,14.22038 -60.14891,11.8866 -19.91653,-0.67497 -37.78663,-10.41533 -54.54059,-20.2091 -19.53406,-12.53883 -31.7396,-35.21136 -30.41665,-58.50793 0.067,-34.97267 26.3604,-63.96641 55.97055,-79.31568 12.63694,-6.1417 25.90432,-12.81303 31.91156,-26.45203 8.58936,-15.73398 16.12353,-35.49722 35.20799,-40.86311 10.77032,-3.919 22.26986,-5.48983 33.6895,-5.69219 z"
         style="fill:#cd4334;fill-opacity:1;fill-rule:evenodd;stroke:none;stroke-width:1px;stroke-linecap:butt;stroke-linejoin:miter;stroke-opacity:1"
         id="path2078" /><path
         d="m 713.47645,547.66498 c 5.12977,-18.01457 19.67126,-34.6786 38.97729,-37.11684 13.80277,-1.78026 28.08593,1.72456 40.23749,8.24205 22.16066,14.75851 35.05953,39.74123 42.35302,64.6795 3.67599,11.92517 6.17666,24.67526 3.14767,37.03976 -2.7993,14.60207 -13.39057,26.97443 -27.02046,32.66676 -17.70364,10.64278 -41.17953,9.20349 -58.05972,-2.43004 -10.04038,-6.64991 -18.93779,-15.32943 -24.33797,-26.20917 -12.78899,-23.06312 -21.41515,-50.46696 -15.29732,-76.87202 z"
         style="fill:#cd4334;fill-rule:evenodd;stroke:none;stroke-width:1px;stroke-linecap:butt;stroke-linejoin:miter;stroke-opacity:1;fill-opacity:1"
         id="path2040" /><path
         d="m 427.14286,81.071428 c 0,0 29.46428,0.178571 45.71428,37.857142 0,0 11.21308,24.43717 7.32143,61.96429 0,0 -0.60865,37.77966 -23.08454,53.18448 0,0 -30.55712,27.7792 -65.65992,-9.59645 0,0 -24.4962,-26.26396 -29.29442,-63.38707 0,0 -5.3033,-38.3858 18.43528,-61.366767 0,0 20.13932,-18.834197 46.56789,-18.655625 z"
         transform="translate(452.8571,333.7907)"
         style="fill:#cd4334;fill-rule:evenodd;stroke:none;stroke-width:1px;stroke-linecap:butt;stroke-linejoin:miter;stroke-opacity:1;fill-opacity:1"
         id="path2071" /><path
         d="m 571.96429,86.785713 c 0,0 36.25,10.714286 32.32143,52.142857 0,0 2.05835,33.27693 -17.63963,63.58151 0,0 -19.95051,37.37564 -46.46702,41.41625 0,0 -29.29442,9.09137 -50.50762,-35.86042 0,0 -15.15229,-51.0127 8.33376,-85.35789 0,0 27.42112,-50.94645 73.95908,-35.922307 z"
         transform="translate(452.8571,333.7907)"
         style="fill:#cd4334;fill-rule:evenodd;stroke:none;stroke-width:1px;stroke-linecap:butt;stroke-linejoin:miter;stroke-opacity:1;fill-opacity:1"
         id="path2073" /><path
         d="m 1105.3571,522.71927 c 17.0128,5.19957 29.0252,21.65542 30.538,39.14833 1.6415,15.71874 -2.0788,31.51923 -7.3703,46.23188 -8.6097,21.5116 -24.1266,40.31698 -43.7581,52.63552 -14.8357,8.09747 -33.3338,4.66111 -46.9133,-4.41714 -5.555,-2.66124 -8.9406,-7.70303 -11.333,-13.19597 -9.0423,-17.99186 -10.3113,-39.89227 -2.093,-58.41912 6.9469,-17.44643 15.4953,-35.25253 30.1471,-47.54014 11.1088,-10.0964 25.6272,-18.34264 41.1562,-16.72517 3.2906,0.33413 6.5337,1.11092 9.6264,2.28181 z"
         style="fill:#cd4334;fill-rule:evenodd;stroke:none;stroke-width:1px;stroke-linecap:butt;stroke-linejoin:miter;stroke-opacity:1;fill-opacity:1"
         id="path2075" /></g></g></svg>
